<?xml version="1.0" encoding="UTF-8"?>
<!DOCTYPE svg PUBLIC "-//W3C//DTD SVG 1.1//EN" "http://www.w3.org/Graphics/SVG/1.1/DTD/svg11.dtd">
<!-- Creator: CorelDRAW -->
<svg xmlns="http://www.w3.org/2000/svg" xml:space="preserve" width="512px" height="512px" version="1.1" style="shape-rendering:geometricPrecision; text-rendering:geometricPrecision; image-rendering:optimizeQuality; fill-rule:evenodd; clip-rule:evenodd"
viewBox="0 0 512 512"
 xmlns:xlink="http://www.w3.org/1999/xlink">
 <defs>
  <style type="text/css">
   <![CDATA[
    .fil1 {fill:#1886A0}
    .fil0 {fill:#1B95B2}
    .fil2 {fill:#1EA6C6}
   ]]>
  </style>
 </defs>
 <g id="Layer_x0020_1">
  <metadata id="CorelCorpID_0Corel-Layer"/>
  <g id="_394280816">
   <g>
    <path class="fil0" d="M339 238l-94 0c-2,0 -4,-2 -4,-4 0,-2 1,-4 3,-4l-59 -143c-1,0 -2,0 -3,-1 -1,-1 -1,-4 1,-5 17,-17 43,-24 68,-17 22,5 40,20 48,42 12,-2 22,1 31,7 14,10 18,26 20,32 24,10 34,37 30,58 -3,17 -15,35 -41,35z"/>
    <path class="fil1" d="M265 238l-20 0c-2,0 -4,-2 -4,-4 0,-2 1,-4 3,-4l-59 -143c-1,0 -2,0 -3,-1 -1,-1 -1,-4 1,-5 2,-3 5,-5 8,-7 8,6 14,14 18,24 1,0 1,0 2,0 19,0 34,9 43,25 3,5 6,11 8,17 19,9 32,27 31,50 0,21 -12,38 -28,48z"/>
    <path class="fil2" d="M245 238l-214 0c0,0 -1,0 -1,0 -23,-7 -39,-26 -40,-48 0,-21 11,-37 31,-45 1,-3 3,-11 7,-18 9,-14 21,-22 37,-22 2,0 4,0 7,1 10,-27 36,-45 66,-45 30,0 56,18 66,45 3,-1 5,-1 7,-1 16,0 28,8 37,22 4,7 6,15 7,18 20,8 31,24 31,45 -1,22 -17,41 -40,48 0,0 -1,0 -1,0z"/>
    <path class="fil0" d="M85 115c11,-27 36,-44 67,-44 12,0 23,3 33,8 0,0 1,0 1,0 0,0 0,0 -1,-1 -12,-10 -29,-17 -47,-17 -30,0 -56,18 -66,45 -3,-1 -5,-1 -7,-1 -16,0 -28,8 -37,22 -4,7 -6,15 -7,18 -20,8 -31,24 -31,45 1,18 12,35 30,44 -10,-9 -16,-22 -16,-35 0,-20 11,-37 30,-44 1,-4 3,-11 8,-19 8,-14 21,-21 37,-21 2,0 4,0 6,0z"/>
   </g>
   <g>
    <path class="fil0" d="M461 440l-95 0c-2,0 -4,-2 -4,-4 0,-2 2,-3 4,-4l-60 -142c0,-1 -1,-1 -2,-2 -1,-1 -1,-4 0,-5 18,-17 44,-23 68,-17 23,5 40,21 49,42 12,-2 22,1 30,7 14,10 19,26 20,32 25,10 34,37 31,58 -3,17 -15,35 -41,35z"/>
    <path class="fil1" d="M386 440l-20 0c-2,0 -4,-2 -4,-4 0,-2 2,-3 4,-4l-60 -142c0,-1 -1,-1 -2,-2 -1,-1 -1,-4 0,-5 3,-3 6,-5 9,-7 7,6 13,14 18,24 0,0 1,0 2,0 18,0 33,9 43,25 3,5 6,11 7,17 20,9 32,28 32,50 -1,21 -12,38 -29,48z"/>
    <path class="fil2" d="M366 440l-213 0c-1,0 -1,0 -1,0 -24,-7 -39,-26 -40,-48 -1,-20 11,-37 30,-45 1,-3 3,-11 8,-18 8,-14 21,-22 37,-22 2,0 4,1 6,1 11,-27 36,-45 67,-45 30,0 56,18 66,45 2,0 4,-1 7,-1 15,0 28,8 36,22 5,7 7,15 8,18 19,8 31,25 30,45 0,22 -16,41 -40,48 0,0 0,0 -1,0z"/>
    <path class="fil0" d="M207 317c10,-27 36,-44 66,-44 12,0 24,3 34,8 0,0 0,0 1,0 -1,0 -1,0 -1,-1 -13,-10 -29,-17 -47,-17 -31,0 -56,18 -67,45 -2,0 -4,-1 -6,-1 -16,0 -29,8 -37,22 -5,7 -7,15 -8,18 -19,8 -31,25 -30,45 0,19 12,35 29,44 -9,-9 -15,-21 -15,-35 -1,-20 11,-37 30,-44 1,-4 3,-11 7,-19 9,-14 22,-21 37,-21 2,0 5,0 7,0z"/>
   </g>
  </g>
 </g>
</svg>
