<?xml version="1.0" encoding="UTF-8"?>
<!DOCTYPE svg PUBLIC "-//W3C//DTD SVG 1.1//EN" "http://www.w3.org/Graphics/SVG/1.1/DTD/svg11.dtd">
<!-- Creator: CorelDRAW -->
<svg xmlns="http://www.w3.org/2000/svg" xml:space="preserve" width="512px" height="512px" version="1.1" style="shape-rendering:geometricPrecision; text-rendering:geometricPrecision; image-rendering:optimizeQuality; fill-rule:evenodd; clip-rule:evenodd"
viewBox="0 0 512 512"
 xmlns:xlink="http://www.w3.org/1999/xlink">
 <defs>
  <style type="text/css">
   <![CDATA[
    .fil0 {fill:#BDBEC0}
    .fil2 {fill:#C1C2C4}
    .fil1 {fill:#D2D3D5}
   ]]>
  </style>
 </defs>
 <g id="Layer_x0020_1">
  <metadata id="CorelCorpID_0Corel-Layer"/>
  <path class="fil0" d="M258 512c-115,0 -217,-78 -247,-189 -18,-67 -9,-136 25,-195 35,-59 90,-102 156,-119 18,-5 37,-8 56,-9 2,0 4,1 5,4 1,2 0,4 -2,5 -69,46 -101,131 -79,211 23,85 99,144 186,144 17,0 34,-3 51,-7 35,-10 67,-29 92,-56 1,-2 4,-2 6,-1 2,1 3,3 3,5 -9,47 -31,89 -63,124 -33,36 -75,61 -122,74 -22,6 -44,9 -67,9 0,0 0,0 0,0z"/>
  <g id="_296764944">
   <path class="fil1" d="M2 251c0,-4 0,-7 1,-11 5,3 19,7 25,7 25,0 45,-20 45,-45 0,-24 -26,-45 -51,-46 2,-3 3,-6 5,-10 28,4 56,27 56,56 0,30 -25,55 -55,55 -7,0 -18,-3 -26,-6z"/>
   <path class="fil1" d="M450 426c-1,1 -2,2 -3,3 -2,2 -3,4 -5,5l0 0c-4,-13 -20,-29 -34,-29 -17,0 -31,13 -31,30 0,12 11,30 22,35 -4,2 -7,4 -10,6 -12,-9 -22,-27 -22,-41 0,-22 18,-41 41,-41 17,0 35,16 42,32z"/>
   <path class="fil1" d="M81 71c3,-2 5,-5 8,-7 4,7 16,17 24,17 14,0 25,-11 25,-24 0,-6 -6,-17 -10,-22 3,-1 6,-3 9,-5 6,7 11,19 11,27 0,19 -16,35 -35,35 -11,0 -25,-11 -32,-21z"/>
   <path class="fil1" d="M97 454c-3,-2 -6,-4 -9,-7l0 0c12,-5 24,-21 24,-34 0,-17 -14,-31 -31,-31 -11,0 -26,12 -32,22 -2,-3 -4,-6 -6,-9 9,-12 25,-23 38,-23 23,0 41,18 41,41 0,15 -12,33 -25,41z"/>
  </g>
  <path class="fil1" d="M230 445c-14,0 -26,-12 -26,-26 0,-15 12,-26 26,-26 14,0 26,11 26,26 0,14 -12,26 -26,26z"/>
  <path class="fil2" d="M230 403c-9,0 -16,7 -16,16 0,8 7,15 16,15 9,0 16,-7 16,-15 0,-9 -7,-16 -16,-16z"/>
 </g>
</svg>
