<?xml version="1.0" encoding="UTF-8"?>
<!DOCTYPE svg PUBLIC "-//W3C//DTD SVG 1.1//EN" "http://www.w3.org/Graphics/SVG/1.1/DTD/svg11.dtd">
<!-- Creator: CorelDRAW -->
<svg xmlns="http://www.w3.org/2000/svg" xml:space="preserve" width="512px" height="512px" version="1.1" style="shape-rendering:geometricPrecision; text-rendering:geometricPrecision; image-rendering:optimizeQuality; fill-rule:evenodd; clip-rule:evenodd"
viewBox="0 0 512 512"
 xmlns:xlink="http://www.w3.org/1999/xlink">
 <defs>
  <style type="text/css">
   <![CDATA[
    .fil1 {fill:#1B95B2}
    .fil0 {fill:#1EA6C6}
    .fil2 {fill:#81D8DF}
   ]]>
  </style>
 </defs>
 <g id="Layer_x0020_1">
  <metadata id="CorelCorpID_0Corel-Layer"/>
  <g id="_394277360">
   <g>
    <path class="fil0" d="M433 292l-354 0c0,0 -1,0 -1,0 -39,-12 -65,-43 -66,-80 -1,-33 18,-61 50,-73 2,-6 5,-19 12,-31 14,-23 35,-35 61,-35 4,0 7,0 11,0 17,-44 60,-73 110,-73 50,0 93,29 110,73 4,0 7,0 11,0 26,0 47,12 61,35 7,12 10,25 12,31 32,12 51,40 50,73 -1,37 -27,68 -66,80 0,0 -1,0 -1,0z"/>
    <path class="fil1" d="M169 89c17,-45 60,-73 110,-73 20,0 38,4 55,13 0,0 1,0 2,1 -1,-1 -1,-1 -2,-2 -21,-18 -48,-28 -78,-28 -50,0 -93,29 -110,73 -4,0 -7,0 -11,0 -26,0 -47,12 -61,35 -7,12 -10,25 -12,31 -32,12 -51,40 -50,73 1,31 19,58 48,73 -15,-15 -25,-35 -25,-57 -1,-33 18,-61 50,-74 1,-6 5,-18 12,-30 14,-23 35,-36 61,-36 3,0 7,1 11,1z"/>
   </g>
   <g>
    <path class="fil2" d="M349 512c-21,0 -38,-16 -38,-35 0,-9 10,-30 28,-63 2,-4 4,-8 5,-10 1,-2 4,-4 6,-4 2,0 4,2 5,4 2,2 4,6 6,11 17,34 26,54 26,62 0,19 -17,35 -38,35z"/>
    <path class="fil2" d="M172 512c-21,0 -38,-16 -38,-35 0,-9 11,-30 28,-63 2,-4 4,-8 5,-10 1,-2 4,-4 6,-4 2,0 5,2 6,4 1,2 3,6 5,11 17,34 26,54 26,62 0,19 -17,35 -38,35z"/>
    <path class="fil2" d="M261 427c-21,0 -38,-15 -38,-35 0,-9 10,-30 28,-63 2,-4 4,-8 5,-10 1,-2 3,-3 5,-3 3,0 5,1 6,3 1,3 3,7 6,12 17,34 26,53 26,61 0,20 -17,35 -38,35z"/>
   </g>
  </g>
 </g>
</svg>
