<?xml version="1.0" encoding="iso-8859-1"?>
<!-- Generator: Adobe Illustrator 16.0.0, SVG Export Plug-In . SVG Version: 6.00 Build 0)  -->
<!DOCTYPE svg PUBLIC "-//W3C//DTD SVG 1.1//EN" "http://www.w3.org/Graphics/SVG/1.1/DTD/svg11.dtd">
<svg version="1.1" xmlns="http://www.w3.org/2000/svg" xmlns:xlink="http://www.w3.org/1999/xlink" x="0px" y="0px" width="512px"
	 height="512px" viewBox="0 0 512 512" style="enable-background:new 0 0 512 512;" xml:space="preserve">
<g id="E733_x2C__Nature_x2C__rain_x2C__season_x2C__weather">
	<g>
		<g>
			<path style="fill:#389FC8;" d="M182.84,48.858c19.44-17.32,45.07-27.86,73.16-27.86c50.35,0,92.8,33.83,105.86,80H386
				c27.62,0,52.62,11.19,70.71,29.29c18.1,18.09,29.29,43.09,29.29,70.71c0,55.23-44.77,100-100,100H126
				c-27.62,0-52.62-11.189-70.71-29.289c-18.1-18.09-29.29-43.09-29.29-70.71c0-27.98,11.5-53.27,30.02-71.42
				c0.76-49.05,40.75-88.58,89.98-88.58C159.13,40.999,171.6,43.809,182.84,48.858z"/>
			<path style="fill:#BEC3C7;" d="M115.997,421.002c-1.237,0-2.493-0.23-3.711-0.719c-5.128-2.051-7.622-7.871-5.571-12.998l20-50
				c2.052-5.129,7.871-7.623,12.999-5.572c5.128,2.053,7.622,7.871,5.571,13l-20,50
				C123.721,418.623,119.965,421.002,115.997,421.002z"/>
			<path style="fill:#BEC3C7;" d="M195.997,401.002c-1.237,0-2.493-0.23-3.711-0.719c-5.128-2.051-7.622-7.871-5.571-12.998l20-50
				c2.051-5.129,7.871-7.623,12.999-5.572c5.128,2.053,7.622,7.871,5.571,13l-20,50
				C203.721,398.623,199.965,401.002,195.997,401.002z"/>
			<path style="fill:#BEC3C7;" d="M355.997,421.002c-1.236,0-2.493-0.23-3.711-0.719c-5.128-2.051-7.622-7.871-5.571-12.998l20-50
				c2.053-5.129,7.873-7.623,12.999-5.572c5.128,2.053,7.622,7.871,5.571,13l-20,50
				C363.721,418.623,359.965,421.002,355.997,421.002z"/>
			<path style="fill:#BEC3C7;" d="M235.997,451.002c-1.237,0-2.493-0.23-3.711-0.719c-5.128-2.051-7.622-7.871-5.571-12.998l20-50
				c2.051-5.129,7.871-7.625,12.999-5.572c5.128,2.053,7.622,7.871,5.571,13l-20,50
				C243.721,448.623,239.965,451.002,235.997,451.002z"/>
			<path style="fill:#BEC3C7;" d="M295.997,491.002c-1.236,0-2.493-0.23-3.711-0.719c-5.128-2.051-7.622-7.871-5.571-12.998l20-50
				c2.052-5.129,7.873-7.623,12.999-5.572c5.128,2.053,7.622,7.871,5.571,13l-20,50
				C303.721,488.623,299.965,491.002,295.997,491.002z"/>
			<g>
				<path style="fill:#32859E;" d="M171.464,74.522c3.344,20.153,14.371,49.33,47.916,73.879c1.781,1.303,3.848,1.931,5.897,1.931
					c3.081,0,6.12-1.418,8.078-4.095c3.262-4.457,2.293-10.714-2.164-13.976c-49.5-36.227-41.446-82.616-39.688-90.347
					c-3.001,2.176-5.901,4.483-8.664,6.944c-3.865-1.736-7.884-3.187-12.017-4.37C169.934,51.504,169.404,62.109,171.464,74.522z"/>
			</g>
		</g>
	</g>
</g>
<g id="Layer_1">
</g>
</svg>
