<?xml version="1.0" encoding="UTF-8"?>
<!DOCTYPE svg PUBLIC "-//W3C//DTD SVG 1.1//EN" "http://www.w3.org/Graphics/SVG/1.1/DTD/svg11.dtd">
<!-- Creator: CorelDRAW -->
<svg xmlns="http://www.w3.org/2000/svg" xml:space="preserve" width="512px" height="512px" version="1.1" style="shape-rendering:geometricPrecision; text-rendering:geometricPrecision; image-rendering:optimizeQuality; fill-rule:evenodd; clip-rule:evenodd"
viewBox="0 0 512 512"
 xmlns:xlink="http://www.w3.org/1999/xlink">
 <defs>
  <style type="text/css">
   <![CDATA[
    .fil1 {fill:#1886A0}
    .fil0 {fill:#1B95B2}
    .fil2 {fill:#1EA6C6}
    .fil3 {fill:#B3B3B3}
   ]]>
  </style>
 </defs>
 <g id="Layer_x0020_1">
  <metadata id="CorelCorpID_0Corel-Layer"/>
  <g id="_394294784">
   <path class="fil0" d="M460 258l-124 0c-3,0 -6,-2 -6,-5 0,-2 2,-4 5,-5l-78 -187c-1,0 -2,0 -3,-1 -2,-2 -2,-6 0,-8 23,-22 57,-30 89,-22 30,7 53,27 64,55 15,-2 29,1 40,9 18,13 24,35 26,43 32,13 45,48 40,75 -4,22 -20,46 -53,46z"/>
   <path class="fil1" d="M361 258l-25 0c-3,0 -6,-2 -6,-5 0,-2 2,-4 5,-5l-78 -187c-1,0 -2,0 -3,-1 -2,-2 -2,-6 0,-8 4,-3 7,-6 12,-9 9,9 17,19 23,32 1,0 2,0 2,0 25,0 45,12 57,32 4,7 7,15 10,23 26,12 42,36 41,65 -1,28 -16,50 -38,63z"/>
   <path class="fil2" d="M336 258l-281 0c0,0 0,0 -1,0 -31,-9 -51,-34 -52,-63 -1,-26 15,-48 40,-58 1,-5 4,-15 10,-24 11,-19 27,-28 48,-28 3,0 5,0 8,0 14,-35 48,-58 88,-58 39,0 73,23 87,58 3,0 6,0 8,0 21,0 38,9 49,28 5,9 8,19 9,24 26,10 41,32 40,58 -1,29 -21,54 -52,63 0,0 -1,0 -1,0z"/>
   <path class="fil0" d="M126 98c14,-36 48,-59 88,-59 15,0 30,4 43,11 1,0 1,0 2,0 -1,0 -1,0 -2,-1 -16,-14 -38,-22 -61,-22 -40,0 -74,23 -88,58 -3,0 -5,0 -8,0 -21,0 -37,9 -48,28 -6,9 -9,19 -10,24 -25,10 -41,32 -40,58 1,25 15,46 38,58 -12,-12 -20,-28 -20,-45 -1,-27 15,-49 40,-59 1,-4 4,-14 10,-24 11,-18 27,-28 48,-28 3,0 5,0 8,1z"/>
  </g>
  <path class="fil0" d="M329 258l-146 0c-1,-1 -1,-3 -1,-5 0,-9 7,-15 15,-15l20 0c0,-1 1,-1 1,-2l-14 -14c-6,-6 -6,-16 0,-22 5,-6 15,-6 21,0l14 15c1,-1 1,-1 2,-1l0 -20c0,-9 7,-15 15,-15 8,0 15,6 15,15l0 20c1,0 1,0 2,1l14 -15c6,-6 16,-6 21,0 6,6 6,16 0,22l-14 14c0,1 1,1 1,2l20 0c8,0 15,6 15,15 0,2 0,4 -1,5z"/>
  <path class="fil3" d="M118 368c-5,0 -10,-2 -14,-5l-19 19c-1,1 -3,2 -4,2 -1,0 -3,-1 -4,-2 -2,-2 -2,-5 0,-7l20 -19c-3,-4 -5,-9 -5,-14l-28 0c-3,0 -5,-2 -5,-5 0,-3 2,-5 5,-5l28 0c0,-5 2,-9 5,-13l-20 -20c-2,-2 -2,-5 0,-7 2,-2 6,-2 8,0l19 19c4,-2 9,-4 14,-5l0 -28c0,-3 2,-5 5,-5 3,0 5,2 5,5l0 28c5,1 9,3 13,5l20 -19c2,-2 5,-2 7,0 2,2 2,5 0,7l-19 20c2,4 4,8 5,13l28 0c3,0 5,2 5,5 0,3 -2,5 -5,5l-28 0c-1,5 -3,10 -5,14l19 19c2,2 2,5 0,7 -1,1 -2,2 -3,2 -2,0 -3,-1 -4,-2l-20 -19c-4,3 -8,5 -13,5l0 28c0,3 -2,5 -5,5 -3,0 -5,-2 -5,-5l0 -28z"/>
  <path class="fil3" d="M384 368c-5,0 -9,-2 -13,-5l-20 19c-1,1 -2,2 -4,2 -1,0 -2,-1 -3,-2 -2,-2 -2,-5 0,-7l20 -19c-3,-4 -5,-9 -6,-14l-28 0c-3,0 -5,-2 -5,-5 0,-3 2,-5 5,-5l28 0c1,-5 3,-9 6,-13l-20 -20c-2,-2 -2,-5 0,-7 2,-2 5,-2 7,0l20 19c4,-2 8,-4 13,-5l0 -28c0,-3 2,-5 5,-5 3,0 5,2 5,5l0 28c5,1 10,3 14,5l19 -19c2,-2 6,-2 8,0 2,2 2,5 0,7l-20 20c3,4 5,8 5,13l28 0c3,0 5,2 5,5 0,3 -2,5 -5,5l-28 0c0,5 -2,10 -5,14l20 19c2,2 2,5 0,7 -1,1 -3,2 -4,2 -1,0 -3,-1 -4,-2l-19 -19c-4,3 -9,5 -14,5l0 28c0,3 -2,5 -5,5 -3,0 -5,-2 -5,-5l0 -28z"/>
  <path class="fil3" d="M251 453c-5,-1 -10,-3 -13,-6l-20 20c-1,1 -2,1 -4,1 -1,0 -2,0 -3,-1 -2,-2 -2,-5 0,-7l19 -20c-2,-4 -4,-9 -5,-13l-28 0c-3,0 -5,-3 -5,-6 0,-2 2,-5 5,-5l28 0c1,-5 3,-9 5,-13l-19 -20c-2,-2 -2,-5 0,-7 2,-2 5,-2 7,0l20 20c3,-3 8,-5 13,-6l0 -28c0,-2 2,-5 5,-5 3,0 5,3 5,5l0 28c5,1 10,3 13,6l20 -20c2,-2 5,-2 7,0 2,2 2,5 0,7l-19 20c3,4 4,8 5,13l28 0c3,0 5,3 5,5 0,3 -2,6 -5,6l-28 0c-1,4 -2,9 -5,13l19 20c2,2 2,5 0,7 -1,1 -2,1 -3,1 -2,0 -3,0 -4,-1l-20 -20c-3,3 -8,5 -13,6l0 27c0,3 -2,6 -5,6 -3,0 -5,-3 -5,-6l0 -27z"/>
  <path class="fil3" d="M251 284c-5,-1 -10,-3 -13,-6l-20 20c-1,1 -2,2 -4,2 -1,0 -2,-1 -3,-2 -2,-2 -2,-5 0,-7l19 -20c-2,-4 -4,-8 -5,-13l-28 0c-3,0 -5,-2 -5,-5 0,-3 2,-5 5,-5l28 0c1,-5 3,-10 5,-14l-19 -19c-2,-2 -2,-6 0,-8 2,-2 5,-2 7,0l20 20c3,-3 8,-5 13,-6l0 -27c0,-3 2,-5 5,-5 3,0 5,2 5,5l0 27c5,1 10,3 13,6l20 -20c2,-2 5,-2 7,0 2,2 2,6 0,8l-19 19c3,4 4,9 5,14l28 0c3,0 5,2 5,5 0,3 -2,5 -5,5l-28 0c-1,5 -2,9 -5,13l19 20c2,2 2,5 0,7 -1,1 -2,2 -3,2 -2,0 -3,-1 -4,-2l-20 -20c-3,3 -8,5 -13,6l0 28c0,3 -2,5 -5,5 -3,0 -5,-2 -5,-5l0 -28z"/>
 </g>
</svg>
