<?xml version="1.0" encoding="UTF-8"?>
<!DOCTYPE svg PUBLIC "-//W3C//DTD SVG 1.1//EN" "http://www.w3.org/Graphics/SVG/1.1/DTD/svg11.dtd">
<!-- Creator: CorelDRAW -->
<svg xmlns="http://www.w3.org/2000/svg" xml:space="preserve" width="512px" height="512px" version="1.1" style="shape-rendering:geometricPrecision; text-rendering:geometricPrecision; image-rendering:optimizeQuality; fill-rule:evenodd; clip-rule:evenodd"
viewBox="0 0 512 512"
 xmlns:xlink="http://www.w3.org/1999/xlink">
 <defs>
  <style type="text/css">
   <![CDATA[
    .fil1 {fill:#1886A0}
    .fil0 {fill:#1B95B2}
    .fil2 {fill:#1EA6C6}
    .fil4 {fill:#DA9E15}
    .fil3 {fill:#F2B017}
    .fil5 {fill:#F39E15}
   ]]>
  </style>
 </defs>
 <g id="Layer_x0020_1">
  <metadata id="CorelCorpID_0Corel-Layer"/>
  <g id="_296783352">
   <g>
    <path class="fil0" d="M454 512l-122 0c-2,0 -5,-2 -5,-5 0,-2 2,-5 4,-5l-76 -184c-1,0 -2,0 -3,-1 -2,-2 -2,-6 0,-7 23,-22 56,-31 88,-23 29,8 52,27 62,55 16,-2 29,1 40,9 18,13 24,34 26,42 31,12 43,47 39,74 -4,22 -20,45 -53,45z"/>
    <path class="fil1" d="M358 512l-26 0c-2,0 -5,-2 -5,-5 0,-2 2,-5 4,-5l-76 -184c-1,0 -2,0 -3,-1 -2,-2 -2,-6 0,-7 4,-4 7,-7 12,-10 9,9 17,19 23,31 0,0 1,0 2,0 24,0 43,12 56,33 4,6 7,14 9,21 26,12 41,36 41,65 -1,27 -16,49 -37,62z"/>
    <path class="fil2" d="M332 512l-275 0c-1,0 -1,0 -1,0 -31,-9 -51,-33 -52,-62 0,-26 15,-48 40,-57 1,-5 3,-15 9,-24 11,-18 27,-28 48,-28 2,0 5,0 8,1 13,-35 47,-58 86,-58 39,0 72,23 85,58 3,-1 6,-1 9,-1 20,0 36,10 47,28 6,9 9,19 10,24 25,9 40,31 39,57 -1,29 -21,53 -51,62 -1,0 -1,0 -2,0z"/>
    <path class="fil0" d="M127 354c13,-35 46,-57 85,-57 16,0 30,3 43,10 1,0 1,0 2,1 -1,-1 -1,-1 -1,-2 -17,-14 -38,-22 -61,-22 -39,0 -73,23 -86,58 -3,-1 -6,-1 -8,-1 -21,0 -37,10 -48,28 -6,9 -8,19 -9,24 -25,9 -40,31 -40,57 1,24 15,45 38,57 -12,-12 -20,-28 -20,-45 -1,-26 14,-47 39,-57 1,-5 4,-14 10,-24 11,-18 27,-28 47,-28 3,0 6,1 9,1z"/>
   </g>
   <g>
    <path class="fil3" d="M253 170c-33,0 -60,-27 -60,-61 0,-33 27,-60 60,-60 34,0 61,27 61,60 0,34 -27,61 -61,61z"/>
    <path class="fil4" d="M253 34c-1,0 -2,-1 -2,-2l0 -30c0,-1 1,-2 2,-2 2,0 3,1 3,2l0 30c0,1 -1,2 -3,2z"/>
    <path class="fil4" d="M360 111l-29 0c-1,0 -2,-1 -2,-2 0,-1 1,-2 2,-2l29 0c2,0 3,1 3,2 0,1 -1,2 -3,2z"/>
    <path class="fil4" d="M253 218c-1,0 -2,-1 -2,-2l0 -29c0,-2 1,-3 2,-3 2,0 3,1 3,3l0 29c0,1 -1,2 -3,2z"/>
    <path class="fil4" d="M176 111l-29 0c-2,0 -3,-1 -3,-2 0,-1 1,-2 3,-2l29 0c1,0 2,1 2,2 0,1 -1,2 -2,2z"/>
    <path class="fil4" d="M306 59c-1,0 -1,0 -2,-1 -1,0 -1,-2 0,-3l20 -19c1,-1 2,-1 3,0 1,0 1,2 0,3l-20 19c0,1 -1,1 -1,1z"/>
    <path class="fil4" d="M325 183c0,0 -1,0 -1,0l-20 -20c-1,-1 -1,-2 0,-3 1,-1 2,-1 3,0l20 19c1,1 1,3 0,4 -1,0 -1,0 -2,0z"/>
    <path class="fil4" d="M182 183c-1,0 -2,0 -2,0 -1,-1 -1,-3 0,-4l20 -19c1,-1 2,-1 3,0 1,1 1,2 0,3l-20 20c0,0 -1,0 -1,0z"/>
    <path class="fil4" d="M201 59c0,0 -1,0 -1,-1l-20 -19c-1,-1 -1,-3 0,-3 1,-1 2,-1 3,0l20 19c1,1 1,3 0,3 -1,1 -1,1 -2,1z"/>
    <path class="fil5" d="M204 109c0,-31 24,-57 55,-60 -2,0 -4,0 -6,0 -33,0 -60,27 -60,60 0,34 27,61 60,61 2,0 4,0 6,-1 -31,-2 -55,-28 -55,-60z"/>
   </g>
  </g>
 </g>
</svg>
