<?xml version="1.0" encoding="UTF-8"?>
<!DOCTYPE svg PUBLIC "-//W3C//DTD SVG 1.1//EN" "http://www.w3.org/Graphics/SVG/1.1/DTD/svg11.dtd">
<!-- Creator: CorelDRAW -->
<svg xmlns="http://www.w3.org/2000/svg" xml:space="preserve" width="512px" height="512px" version="1.1" style="shape-rendering:geometricPrecision; text-rendering:geometricPrecision; image-rendering:optimizeQuality; fill-rule:evenodd; clip-rule:evenodd"
viewBox="0 0 512 512"
 xmlns:xlink="http://www.w3.org/1999/xlink">
 <defs>
  <style type="text/css">
   <![CDATA[
    .fil1 {fill:#1886A0}
    .fil0 {fill:#1B95B2}
    .fil2 {fill:#1EA6C6}
    .fil4 {fill:#81D8DF}
    .fil3 {fill:#E09B2D}
   ]]>
  </style>
 </defs>
 <g id="Layer_x0020_1">
  <metadata id="CorelCorpID_0Corel-Layer"/>
  <g id="_394287152">
   <g>
    <path class="fil0" d="M458 260l-124 0c-3,0 -5,-2 -5,-5 0,-2 1,-4 4,-5l-78 -187c-1,0 -2,0 -3,-1 -2,-2 -2,-6 0,-8 23,-21 57,-30 89,-22 30,7 53,27 64,55 15,-2 29,1 40,9 18,13 24,35 26,43 32,13 45,48 40,75 -4,23 -20,46 -53,46z"/>
    <path class="fil1" d="M359 260l-25 0c-3,0 -5,-2 -5,-5 0,-2 1,-4 4,-5l-78 -187c-1,0 -2,0 -3,-1 -2,-2 -2,-6 0,-8 4,-3 8,-6 12,-9 9,9 17,19 23,32 1,0 2,0 2,0 25,0 45,12 57,32 4,7 8,15 10,23 26,12 42,36 41,65 -1,28 -15,50 -38,63z"/>
    <path class="fil2" d="M334 260l-280 0c-1,0 -1,0 -2,0 -31,-9 -51,-33 -52,-63 -1,-26 15,-48 40,-58 1,-5 4,-15 10,-24 11,-19 27,-28 48,-28 3,0 5,0 8,0 14,-35 48,-58 88,-58 39,0 73,23 87,58 3,0 6,0 8,0 21,0 38,9 49,28 5,9 8,19 9,24 26,10 41,32 40,58 -1,30 -21,54 -52,63 0,0 -1,0 -1,0z"/>
    <path class="fil0" d="M124 100c14,-36 48,-59 88,-59 15,0 30,4 43,11 1,0 1,0 2,0 -1,0 -1,0 -1,-1 -17,-14 -39,-22 -62,-22 -40,0 -74,23 -88,58 -3,0 -5,0 -8,0 -21,0 -37,9 -48,28 -6,9 -9,19 -10,24 -25,10 -41,32 -40,58 1,25 15,46 38,58 -12,-12 -20,-28 -20,-45 -1,-27 15,-49 40,-59 1,-4 4,-14 10,-24 11,-18 27,-28 48,-28 3,0 5,0 8,1z"/>
   </g>
   <path class="fil0" d="M312 260l-117 0 65 -102c3,-6 11,-9 18,-6 6,2 10,9 9,16l-9 60 27 0c5,0 10,3 13,8 3,5 2,11 -1,15l-5 9zm-155 0l-103 0c-1,0 -1,0 -2,0 -3,-1 -6,-2 -9,-3l62 -99c3,-6 11,-9 18,-6 6,2 10,9 9,16l-9 60 27 0c5,0 10,3 13,8 3,5 3,11 0,15l-6 9z"/>
   <g>
    <path class="fil3" d="M235 357c-1,0 -1,0 -2,0 -2,-1 -4,-3 -3,-5l5 -71 -31 -2c-1,0 -3,-1 -4,-2 -1,-2 -1,-4 0,-5l68 -109c1,-2 4,-3 6,-2 2,1 4,3 3,6l-10 71 38 0c2,0 3,1 4,3 1,1 1,3 0,5l-70 109c-1,2 -3,2 -4,2z"/>
    <path class="fil3" d="M80 357c-1,0 -1,0 -2,0 -2,-1 -3,-3 -3,-5l5 -71 -31 -2c-1,0 -3,-1 -4,-2 -1,-2 -1,-4 0,-5l68 -109c1,-2 4,-3 6,-2 2,1 4,3 3,6l-10 71 38 0c2,0 3,1 4,3 1,1 1,3 0,5l-70 109c-1,2 -2,2 -4,2z"/>
   </g>
   <g>
    <path class="fil4" d="M249 483c-17,0 -31,-13 -31,-29 0,-7 9,-24 23,-51 2,-4 3,-7 4,-8 1,-2 3,-3 5,-3 2,0 4,1 5,3 1,2 2,5 4,9 14,28 21,44 21,50 0,16 -13,29 -31,29z"/>
    <path class="fil4" d="M105 483c-17,0 -31,-13 -31,-29 0,-7 8,-24 23,-51 1,-4 3,-7 4,-8 1,-2 2,-3 4,-3 2,0 4,1 5,3 1,2 3,5 5,9 13,28 21,44 21,50 0,16 -14,29 -31,29z"/>
    <path class="fil4" d="M177 414c-17,0 -31,-13 -31,-29 0,-7 9,-24 23,-51 2,-4 3,-7 4,-8 1,-2 3,-3 5,-3 2,0 3,1 4,3 1,2 3,5 5,9 14,28 21,44 21,50 0,16 -14,29 -31,29z"/>
   </g>
  </g>
 </g>
</svg>
