<?xml version="1.0" encoding="UTF-8"?>
<!DOCTYPE svg PUBLIC "-//W3C//DTD SVG 1.1//EN" "http://www.w3.org/Graphics/SVG/1.1/DTD/svg11.dtd">
<!-- Creator: CorelDRAW -->
<svg xmlns="http://www.w3.org/2000/svg" xml:space="preserve" width="512px" height="512px" version="1.1" style="shape-rendering:geometricPrecision; text-rendering:geometricPrecision; image-rendering:optimizeQuality; fill-rule:evenodd; clip-rule:evenodd"
viewBox="0 0 512 512"
 xmlns:xlink="http://www.w3.org/1999/xlink">
 <defs>
  <style type="text/css">
   <![CDATA[
    .fil0 {fill:#59A7A7}
   ]]>
  </style>
 </defs>
 <g id="Layer_x0020_1">
  <metadata id="CorelCorpID_0Corel-Layer"/>
  <g id="_296779872">
   <path class="fil0" d="M449 278l-325 0c-3,0 -5,-3 -5,-5 0,-3 2,-5 5,-5l325 0c29,0 53,-25 53,-54 0,-30 -24,-54 -54,-54 -30,0 -54,24 -54,54 0,2 -2,5 -5,5 -3,0 -5,-3 -5,-5 0,-36 28,-65 64,-65 35,0 64,29 64,65 0,35 -28,64 -63,64z"/>
   <path class="fil0" d="M330 173l-325 0c-3,0 -5,-2 -5,-5 0,-3 2,-5 5,-5l325 0c29,0 53,-24 53,-54 0,-30 -24,-54 -54,-54 -30,0 -54,24 -54,54 0,3 -2,5 -5,5 -3,0 -5,-2 -5,-5 0,-35 28,-64 64,-64 35,0 64,29 64,64 0,35 -28,64 -63,64z"/>
   <path class="fil0" d="M371 467c-36,0 -64,-29 -64,-64 0,-3 2,-5 5,-5 3,0 5,2 5,5 0,30 24,54 54,54 30,0 54,-24 54,-54 0,-30 -24,-54 -53,-54l-325 0c-3,0 -5,-2 -5,-5 0,-3 2,-5 5,-5l325 0c35,0 63,29 63,64 0,35 -29,64 -64,64z"/>
  </g>
 </g>
</svg>
